#!OML:ASF C:\ViconDB\ViconDB\414\Spring2016\041811\Spring2016.ASF
:FULLY-SPECIFIED
:DEGREES
166
root 10.2937 17.9015 3.99711 -175.567 -6.91292 -184.962
lowerback -0.773616 -0.381535 1.11045
upperback 1.58386 -0.53721 -0.656037
thorax 2.04036 -0.253653 -1.30875
lowerneck -13.6058 4.49687 -7.68244
upperneck 24.4583 5.97459 5.21237
head 9.53456 2.2915 3.74927
rclavicle 5.26779e-015 -1.11319e-014
rhumerus -89.3022 28.985 -114.514
rradius 92.8089
rwrist 37.1753
rhand -46.8842 -1.84811
rfingers 7.12502
rthumb -19.5959 -30.8805
lclavicle 5.26779e-015 -1.11319e-014
lhumerus -89.446 -45.2513 113.927
lradius 85.1897
lwrist -30.4919
lhand -43.0095 -0.711819
lfingers 7.12502
lthumb -15.8675 28.658
rfemur 206.37 38.465 -146.904
rtibia 25.3216
rfoot -42.3103 -50.1981
rtoes -24.3345
lfemur 3.52147 2.74113 -29.74
ltibia 13.0574
lfoot -21.2605 -3.92926
ltoes -11.5708
167
root 10.279 17.8644 3.92667 -175.475 -6.9548 -185.416
lowerback -0.657287 -0.394122 0.991006
upperback 1.47016 -0.547572 -0.857953
thorax 1.85708 -0.260987 -1.4474
lowerneck -13.5911 4.49365 -7.80543
upperneck 24.568 5.97966 5.23475
head 9.56492 2.27566 3.78049
rclavicle 4.87022e-015 5.56597e-015
rhumerus -88.9695 28.7466 -114.825
rradius 92.5152
rwrist 36.9496
rhand -46.9217 -2.08531
rfingers 7.12502
rthumb -19.632 -31.114
lclavicle 4.87022e-015 5.56597e-015
lhumerus -89.342 -45.5908 113.805
lradius 85.1919
lwrist -30.7508
lhand -43.0075 -0.974312
lfingers 7.12502
lthumb -15.8655 28.3957
rfemur 207.463 38.2888 -146.873
rtibia 24.7828
rfoot -42.4704 -50.108
rtoes -24.5733
lfemur 3.64463 3.22833 -30.1181
ltibia 13.2343
lfoot -21.4466 -4.62896
ltoes -11.6221
168
root 10.2651 17.8229 3.8498 -175.431 -7.02271 -186.023
lowerback -0.673559 -0.375673 0.64992
upperback 1.45163 -0.517623 -1.07251
thorax 1.84908 -0.250976 -1.47558
lowerneck -13.2991 4.5484 -7.89061
upperneck 24.3699 6.0358 5.31589
head 9.42879 2.31084 3.81039
rclavicle 2.44505e-014 -2.06736e-014
rhumerus -88.5248 28.4813 -114.933
rradius 92.4008
rwrist 36.2877
rhand -46.6687 -1.42594
rfingers 7.12502
rthumb -19.3888 -30.4793
lclavicle 2.44505e-014 -2.06736e-014
lhumerus -89.2653 -46.0261 113.801
lradius 85.3673
lwrist -30.69
lhand -42.9226 -1.28579
lfingers 7.12502
lthumb -15.7839 28.0907
rfemur 207.993 37.852 -147.581
rtibia 24.3913
rfoot -42.0744 -50.124
rtoes -24.9896
lfemur 3.85217 3.98528 -30.5968
ltibia 13.4155
lfoot -21.5957 -5.59697
ltoes -11.6442
169
root 10.2551 17.7872 3.76312 -175.399 -7.21953 -186.439
lowerback -0.770653 -0.414749 0.383515
upperback 1.47829 -0.566403 -1.16132
thorax 1.93109 -0.279188 -1.41948
lowerneck -13.3744 4.5134 -8.02844
upperneck 24.4496 6.03588 5.26467
head 9.46917 2.28797 3.82086
rclavicle 6.26172e-015 -1.19271e-014
rhumerus -88.0237 28.3689 -114.931
rradius 92.231
rwrist 36.1446
rhand -46.5645 -1.44003
rfingers 7.12502
rthumb -19.2886 -30.5035
lclavicle 6.26172e-015 -1.19271e-014
lhumerus -89.1209 -46.4088 113.887
lradius 85.4505
lwrist -30.6047
lhand -42.953 -1.6052
lfingers 7.12502
lthumb -15.8131 27.769
rfemur 208.33 37.5692 -148.115
rtibia 24.1323
rfoot -41.9297 -50.1261
rtoes -25.4696
lfemur 4.10008 4.25742 -30.9141
ltibia 13.6
lfoot -21.8568 -6.17321
ltoes -11.8267
170
root 10.2498 17.7535 3.68253 -175.438 -7.54618 -186.573
lowerback -0.645839 -0.460552 0.418994
upperback 1.43547 -0.628201 -1.18455
thorax 1.81472 -0.310111 -1.46305
lowerneck -13.2518 4.50142 -8.11656
upperneck 24.4282 6.03899 5.20477
head 9.43816 2.2723 3.80931
rclavicle 3.77691e-015 6.36111e-015
rhumerus -87.645 28.1552 -114.976
rradius 92.1785
rwrist 36.1415
rhand -46.5161 -1.66492
rfingers 7.12502
rthumb -19.242 -30.733
lclavicle 3.77691e-015 6.36111e-015
lhumerus -89.0981 -46.7808 114.067
lradius 85.4581
lwrist -30.812
lhand -42.8384 -1.74407
lfingers 7.12502
lthumb -15.7027 27.6388
rfemur 208.098 36.8171 -148.993
rtibia 24.0514
rfoot -40.4823 -50.1736
rtoes -24.2396
lfemur 4.40324 4.56834 -30.8562
ltibia 13.692
lfoot -21.9779 -6.85377
ltoes -11.9912
171
root 10.2453 17.7199 3.5852 -175.346 -8.02111 -186.97
lowerback -0.824606 -0.590282 0.116267
upperback 1.42379 -0.796161 -1.23515
thorax 1.90168 -0.3982 -1.35102
lowerneck -13.3605 4.49686 -8.42915
upperneck 24.663 6.03152 5.48281
head 9.51852 2.25786 3.96821
rclavicle 4.47266e-015 2.38542e-014
rhumerus -87.2819 28.1473 -114.991
rradius 92.1958
rwrist 35.9956
rhand -46.4589 -1.64916
rfingers 7.12502
rthumb -19.1871 -30.7227
lclavicle 4.47266e-015 2.38542e-014
lhumerus -89.1669 -47.1061 114.336
lradius 85.5349
lwrist -30.9196
lhand -42.879 -1.90599
lfingers 7.12502
lthumb -15.7419 27.4738
rfemur 207.607 36.0112 -150.435
rtibia 24.1317
rfoot -39.1244 -50.1591
rtoes -24.4519
lfemur 4.7135 4.7463 -31.0746
ltibia 13.7293
lfoot -22.0921 -7.53201
ltoes -12.2313
172
root 10.2425 17.6829 3.48282 -175.371 -8.58011 -187.31
lowerback -0.832107 -0.746463 -0.112299
upperback 1.40111 -1.00144 -1.25607
thorax 1.88113 -0.504511 -1.24917
lowerneck -13.3023 4.56752 -8.73674
upperneck 24.7273 6.14987 5.64881
head 9.50223 2.29752 4.08794
rclavicle 3.34952e-014 1.11319e-014
rhumerus -86.9197 28.0076 -114.965
rradius 92.1451
rwrist 36.3074
rhand -46.4108 -1.59844
rfingers 7.12502
rthumb -19.1408 -30.6766
lclavicle 3.34952e-014 1.11319e-014
lhumerus -89.2328 -47.3058 114.619
lradius 85.3698
lwrist -31.3503
lhand -43.168 -2.05037
lfingers 7.12502
lthumb -16.0201 27.3073
rfemur 206.882 35.5135 -151.732
rtibia 24.3521
rfoot -37.8459 -50.6818
rtoes -23.7123
lfemur 5.18598 4.78156 -31.2089
ltibia 13.7728
lfoot -22.2415 -8.16837
ltoes -12.4563
173
root 10.2412 17.6486 3.37348 -175.32 -9.17716 -187.556
lowerback -1.02428 -0.894469 -0.333846
upperback 1.38922 -1.19352 -1.32297
thorax 1.97604 -0.603632 -1.20177
lowerneck -13.2032 4.55183 -8.48301
upperneck 24.7744 6.08633 5.48545
head 9.52124 2.26592 3.98076
rclavicle -3.8763e-015 7.15625e-015
rhumerus -86.5423 27.8719 -114.982
rradius 92.1669
rwrist 36.725
rhand -46.3148 -1.40305
rfingers 7.12502
rthumb -19.0485 -30.4903
lclavicle -3.8763e-015 7.15625e-015
lhumerus -89.7234 -47.8003 115.329
lradius 85.16
lwrist -30.9813
lhand -43.4582 -1.96822
lfingers 7.12502
lthumb -16.2995 27.3667
rfemur 205.895 34.7119 -153.233
rtibia 24.7421
rfoot -36.1917 -51.1118
rtoes -23.6836
lfemur 5.61176 4.68013 -31.2693
ltibia 13.7623
lfoot -22.3974 -8.64419
ltoes -12.7335
174
root 10.2406 17.6133 3.25825 -175.337 -9.84552 -187.736
lowerback -1.02354 -1.04018 -0.409479
upperback 1.2946 -1.38681 -1.39051
thorax 1.87517 -0.701253 -1.23241
lowerneck -12.9443 4.58965 -8.29596
upperneck 24.7346 6.09125 5.35622
head 9.46958 2.26633 3.89385
rclavicle -4.32357e-015 -2.06736e-014
rhumerus -86.2629 27.5112 -115.058
rradius 92.1032
rwrist 37.0696
rhand -46.4706 -1.64301
rfingers 7.12502
rthumb -19.1982 -30.7154
lclavicle -4.32357e-015 -2.06736e-014
lhumerus -90.6287 -48.0874 115.98
lradius 85.4844
lwrist -30.7506
lhand -43.3956 -1.89062
lfingers 7.12502
lthumb -16.2393 27.4493
rfemur 204.831 34.2975 -154.429
rtibia 25.2011
rfoot -35.0691 -51.7336
rtoes -23.1397
lfemur 6.06025 4.26764 -31.2969
ltibia 13.8893
lfoot -22.6646 -8.85107
ltoes -13.0862
175
root 10.237 17.5745 3.1365 -175.379 -10.481 -187.842
lowerback -1.17062 -1.20393 -0.539686
upperback 1.29245 -1.60017 -1.3073
thorax 1.95765 -0.809235 -1.08336
lowerneck -12.9844 4.62685 -8.58014
upperneck 24.9335 6.1241 5.65321
head 9.52066 2.27643 4.0551
rclavicle 4.77083e-015 -7.95139e-015
rhumerus -85.9576 27.3899 -114.765
rradius 92.1568
rwrist 37.2304
rhand -46.2777 -1.60415
rfingers 7.12502
rthumb -19.0128 -30.6949
lclavicle 4.77083e-015 -7.95139e-015
lhumerus -91.2328 -48.2461 116.868
lradius 85.2645
lwrist -30.3054
lhand -43.6662 -2.01322
lfingers 7.12502
lthumb -16.4998 27.3052
rfemur 203.618 33.8998 -155.564
rtibia 25.7606
rfoot -34.0884 -52.4556
rtoes -22.9819
lfemur 6.54045 3.88246 -31.2859
ltibia 14.0365
lfoot -22.9833 -8.92211
ltoes -13.5606
176
root 10.2392 17.5389 3.00914 -175.4 -11.1696 -187.744
lowerback -1.25703 -1.35348 -0.379971
upperback 1.20323 -1.80017 -1.26799
thorax 1.9081 -0.905797 -1.13873
lowerneck -12.8772 4.61089 -8.57707
upperneck 25.0314 6.04838 5.75124
head 9.53606 2.24236 4.08006
rclavicle 2.80783e-014 3.18055e-015
rhumerus -85.7263 27.0782 -114.577
rradius 92.2441
rwrist 37.1772
rhand -46.2706 -1.60664
rfingers 7.12502
rthumb -19.0059 -30.6981
lclavicle 2.80783e-014 3.18055e-015
lhumerus -92.2869 -48.5084 117.948
lradius 85.1821
lwrist -29.9829
lhand -44.0198 -1.36562
lfingers 7.12502
lthumb -16.8403 27.9241
rfemur 202.324 33.5383 -156.43
rtibia 26.3822
rfoot -32.9478 -53.3243
rtoes -22.1093
lfemur 6.94241 3.16052 -31.0789
ltibia 14.2978
lfoot -23.3633 -8.79821
ltoes -13.9335
